# xmcd
#
# Track frame offsets:
# 150
# 16960
# 34117
# 49547
# 66842
# 82320
# 98075
# 114707
# 131750
# 147892
# 164570
# 181392
# 199700
# 220497
# 238347
# 252925
# 284995
#
# Disc length: 4212 seconds
#
#
# Revision: 7
# Processed by: cddbd v1.5.1PL0 Copyright (c) Steve Scherf et al.
# Submitted via: FreeRIP 2.60 
#
DISCID=0d107211
DTITLE=Blue - Best of Blue
DYEAR=2004
DGENRE=Pop/Funk
TTITLE0=All rise
TTITLE1=Too close
TTITLE2=If you come back
TTITLE3=Fly by II
TTITLE4=One love
TTITLE5=Sorry seems to be the hardest word
TTITLE6=U make me wanna
TTITLE7=Guilty
TTITLE8=Signed, sealed, delivered I'm yours
TTITLE9=Breathe easy
TTITLE10=Bubblin'
TTITLE11=Curtain falls
TTITLE12=Get down on it
TTITLE13=Love at first sight
TTITLE14=Best in me (2004)
TTITLE15=A chi mi dice
TTITLE16=Data
EXTD=
EXTT0=
EXTT1=
EXTT2=
EXTT3=
EXTT4=
EXTT5=
EXTT6=
EXTT7=
EXTT8=
EXTT9=
EXTT10=
EXTT11=
EXTT12=
EXTT13=
EXTT14=
EXTT15=
EXTT16=
PLAYORDER=
